# xmcd
#
# Track frame offsets: 
#        150
#        14202
#        24053
#        49854
#        63698
#        79260
#        90753
#        110326
#        125543
#        138810
#
# Disc length: 2037 seconds
#
# Revision: 0
# Processed by: cddbd v1.5.2PL0 Copyright (c) Steve Scherf et al.
# Submitted via: ExactAudioCopyFreeDBPlugin 1.0
#
DISCID=7a07f30a
DTITLE=Ruzz Guitar's Blues Revue Big Band - The Heist
DYEAR=2018
DGENRE=Blues
TTITLE0=The heist
TTITLE1=Back home to stay
TTITLE2=Rock with you
TTITLE3=I used to love you (feat. Pete Gage)
TTITLE4=Saints and sinners
TTITLE5=Juke joint shakedown
TTITLE6=Mine all mine
TTITLE7=Home to me (feat. Pete Gage)
TTITLE8=High-Stakes Hustle
TTITLE9=Girl for me
EXTD=
EXTT0=
EXTT1=
EXTT2=
EXTT3=
EXTT4=
EXTT5=
EXTT6=
EXTT7=
EXTT8=
EXTT9=
PLAYORDER=
